<?xml version="1.0" encoding="utf-8"?>
<?xml-stylesheet type="text/xsl" href="rss1.xsl"?>
<rss version="2.0" xmlns:atom="http://www.w3.org/2005/Atom" xmlns:content="http://purl.org/rss/1.0/modules/content/" xmlns:dc="http://purl.org/dc/elements/1.1/" xmlns:media="http://search.yahoo.com/mrss/">
<channel>
 <title>Getty</title>
 <link>http://www.gettyimg.com/</link>
 <atom:link href="http://www.gettyimg.com/" rel="self" type="application/rss+xml" />

 
                <item>
                <title><![CDATA[【HD Live Performances】Becky G Coachella Stage REC LIVE 1080p Day 4 22-04-23]]></title>
                <link><![CDATA[https://sharemania.us/threads/becky-g-coachella-stage-rec-live-1080p-day-4-22-04-23.219590/]]></link>
                <description><![CDATA[<article>
<blockquote class="messageText SelectQuoteContainer ugc baseHtml">
Becky G Coachella Stage REC LIVE 1080p Day 4 21-04-23<br>
<br>
<img src="https://i.ibb.co/19RXgmx/Becky-G-Coachella-Stage-Rec-Day-4-21-04-23-By-Dark-Magicar5-mkv-thumbs.jpg" class="bbCodeImage LbImage" alt="[​IMG]" data-url="https://i.ibb.co/19RXgmx/Becky-G-Coachella-Stage-Rec-Day-4-21-04-23-By-Dark-Magicar5-mkv-thumbs.jpg" style=""> <img src="https://i.ibb.co/WF9Nh8v/Becky-G-Coachella-Stage-Rec-Day-4-21-04-23-By-Dark-Magicar5-mkv-snapshot-43-12-584.jpg" class="bbCodeImage LbImage" alt="[​IMG]" data-url="https://i.ibb.co/WF9Nh8v/Becky-G-Coachella-Stage-Rec-Day-4-21-04-23-By-Dark-Magicar5-mkv-snapshot-43-12-584.jpg" style=""> <img src="https://i.ibb.co/64gKZhZ/Becky-G-Coachella-Stage-Rec-Day-4-21-04-23-By-Dark-Magicar5-mkv-snapshot-36-14-950.jpg" class="bbCodeImage LbImage" alt="[​IMG]" data-url="https://i.ibb.co/64gKZhZ/Becky-G-Coachella-Stage-Rec-Day-4-21-04-23-By-Dark-Magicar5-mkv-snapshot-36-14-950.jpg" style=""> <img src="https://i.ibb.co/KD3mxKp/Becky-G-Coachella-Stage-Rec-Day-4-21-04-23-By-Dark-Magicar5-mkv-snapshot-09-15-567.jpg" class="bbCodeImage LbImage" alt="[​IMG]" data-url="https://i.ibb.co/KD3mxKp/Becky-G-Coachella-Stage-Rec-Day-4-21-04-23-By-Dark-Magicar5-mkv-snapshot-09-15-567.jpg" style=""> <br>
<br>
<br>
<br>
<div class="bbCodeBlock bbCodeVfcHH HiddenContent">
<div class="attribution type">Hidden Content:</div>
<blockquote>You must reply before you can see the hidden data contained here.</blockquote>
</div>
<div class="messageTextEndMarker">&nbsp;</div>
</blockquote>
</article>]]></description>
                <author><![CDATA[darkmagicar5]]></author>
                </item>

                
                <item>
                <title><![CDATA[【Music Videos】The Weeknd - Double Fantasy (feat. Future)  [1080P AM WEB-DL AVC DDP 5.1 ATMOS] - By RK✪]]></title>
                <link><![CDATA[https://sharemania.us/threads/the-weeknd-double-fantasy-feat-future-1080p-am-web-dl-avc-ddp-5-1-atmos-by-rk%E2%9C%AA.219596/]]></link>
                <description><![CDATA[<article>
<blockquote class="messageText SelectQuoteContainer ugc baseHtml">
<b>The Weeknd - Double Fantasy (feat. Future) [1080P AM WEB-DL AVC DDP 5.1 ATMOS] - By RK✪<br>
<i><br>
<span style="color: #4d4dff">Hear the Difference !!</span></i><br>
<br>
<span style="color: #000000"><i>
<div class="bbCodeBlock bbCodeCode">
<div class="type">Code:</div>
<pre>Media Info:</pre>
</div></i>
<div class="bbCodeBlock bbCodeCode">
<div class="type">Code:</div>
<pre><i><span style="color: rgb(0, 0, 0)">Format                      : Matroska
Format version              : Version 4
File size                   : 354 MiB
Duration                    : 4 min 28 s
Overall bit rate            : 11.1 Mb/s
Frame rate                  : 23.976 FPS
Movie name                  : The Weeknd - Double Fantasy (feat. Future) - By RK✪
Encoded date                : 2023-04-23 06:11:04 UTC
Writing application         : mkvmerge v75.0.0 ('Goliath') 64-bit
Writing library             : libebml v1.4.4 + libmatroska v1.7.1
Video
ID                          : 1
Format                      : AVC
Format/Info                 : Advanced Video Codec
Format profile              : High@L4
Format settings             : CABAC / 4 Ref Frames
Format settings, CABAC      : Yes
Format settings, Reference  : 4 frames
Codec ID                    : V_MPEG4/ISO/AVC
Duration                    : 4 min 23 s
Bit rate                    : 10.2 Mb/s
Width                       : 1 920 pixels
Height                      : 960 pixels
Display aspect ratio        : 2.000
Frame rate mode             : Constant
Frame rate                  : 23.976 (24000/1001) FPS
Color space                 : YUV
Chroma subsampling          : 4:2:0
Bit depth                   : 8 bits
Scan type                   : Progressive
Bits/(Pixel*Frame)          : 0.231
Stream size                 : 321 MiB (91%)
Title                       : - By RK✪
Language                    : English
Default                     : Yes
Forced                      : No
Color range                 : Limited
Color primaries             : BT.709
Transfer characteristics    : BT.709
Matrix coefficients         : BT.709
Audio #1
ID                          : 2
Format                      : E-AC-3 JOC
Format/Info                 : Enhanced AC-3 with Joint Object Coding
Commercial name             : Dolby Digital Plus with Dolby Atmos
Codec ID                    : A_EAC3
Duration                    : 4 min 28 s
Bit rate mode               : Constant
Bit rate                    : 768 kb/s
Channel(s)                  : 6 channels
Channel layout              : L R C LFE Ls Rs
Sampling rate               : 48.0 kHz
Frame rate                  : 31.250 FPS (1536 SPF)
Compression mode            : Lossy
Delay relative to video     : -15 ms
Stream size                 : 24.6 MiB (7%)
Title                       : - By RK✪
Language                    : English
Service kind                : Complete Main
Default                     : Yes
Forced                      : No
Complexity index            : 16
Number of dynamic objects   : 15
Bed channel count           : 1 channel
Bed channel configuration   : LFE
Audio #2
ID                          : 3
Format                      : AAC LC
Format/Info                 : Advanced Audio Codec Low Complexity
Codec ID                    : A_AAC-2
Duration                    : 4 min 23 s
Bit rate                    : 265 kb/s
Channel(s)                  : 2 channels
Channel layout              : L R
Sampling rate               : 48.0 kHz
Frame rate                  : 46.875 FPS (1024 SPF)
Compression mode            : Lossy
Delay relative to video     : -42 ms
Stream size                 : 8.23 MiB (2%)
Title                       : - By RK✪
Language                    : English
Default                     : No
Forced                      : No
Text
ID                          : 4
Format                      : UTF-8
Codec ID                    : S_TEXT/UTF8
Codec ID/Info               : UTF-8 Plain Text
Duration                    : 4 min 22 s
Bit rate                    : 77 b/s
Frame rate                  : 0.229 FPS
Count of elements           : 60
Stream size                 : 2.46 KiB (0%)
Title                       : - By RK✪
Language                    : English
Default                     : Yes
Forced                      : No
</span></i></pre>
</div><br>
<br>
<span style="color: #ff0000">Password:</span><br>
<br>
<div class="bbCodeBlock bbCodeVfcHH HiddenContent">
<div class="attribution type">Hidden Content:</div>
<blockquote>You must reply before you can see the hidden data contained here.</blockquote>
</div><span style="color: #59b300">Link:</span><br>
<span style="color: rgb(0, 0, 0)"><br>
<div class="bbCodeBlock bbCodeVfcHH HiddenContent">
<div class="attribution type">Hidden Content:</div>
<blockquote>You must reply before you can see the hidden data contained here.</blockquote>
</div></span><br>
</span></b>
<div class="messageTextEndMarker">&nbsp;</div>
</blockquote>
</article>]]></description>
                <author><![CDATA[RK94]]></author>
                </item>

                
                <item>
                <title><![CDATA[【Cinema Center】MOVIE - Garfield.A.Tail.of.Two.Kitties.2006.1080p.HMAX.WEB-DL.DD5.1.x264-Samuel]]></title>
                <link><![CDATA[https://sharemania.us/threads/garfield-a-tail-of-two-kitties-2006-1080p-hmax-web-dl-dd5-1-x264-samuel.219597/]]></link>
                <description><![CDATA[<article>
<blockquote class="messageText SelectQuoteContainer ugc baseHtml">
<div style="text-align: center"><b><span style="font-size: 26px">Garfield: A Tail of Two Kitties</span></b><br>
<a href="https://i.imgur.com/AhIoWPy.jpg" target="_blank" class="externalLink" rel="nofollow"><img src="https://i.imgur.com/yNx2i0Z.jpg" class="bbCodeImage LbImage" alt="[​IMG]" data-url="https://i.imgur.com/yNx2i0Z.jpg"></a><br>
<br>
1 HR 17 MIN • PG • 2006 • HD • 5.1 • COMEDY<br>
<br>
<div class="bbCodeBlock bbCodeQuote">
<aside>
<blockquote class="quoteContainer"><div class="quote"><b><span style="font-size: 15px"><span style="font-family: 'Arial'">Description</span></span></b><br>
The portly comic-strip feline finds himself living the high life in London thanks to a case of mistaken identity in this riotous sequel.</div><div class="quoteExpand">Click to expand...</div></blockquote>
</aside>
</div>
<div class="bbCodeBlock bbCodeQuote">
<aside>
<blockquote class="quoteContainer"><div class="quote"><span style="font-family: 'Arial'"><span style="font-size: 15px"><b>Trailers &amp; Clips</b></span></span><br>
<div data-s9e-mediaembed="googledrive" style="display:inline-block;width:100%;max-width:640px"><div style="overflow:hidden;position:relative;padding-bottom:75%"><iframe allowfullscreen="" scrolling="no" src="//drive.google.com/file/d/1-fMvEI3AxQkDEH9_N1w8oi4wJCd54Zo2/preview" style="border:0;height:100%;left:0;position:absolute;width:100%"></iframe></div></div></div><div class="quoteExpand quoteCut">Click to expand...</div></blockquote>
</aside>
</div>
<div class="bbCodeBlock bbCodeQuote">
<aside>
<blockquote class="quoteContainer"><div class="quote"><span style="font-family: 'Arial'"><span style="font-size: 15px"><b>Accessibility</b></span></span><br>
<b>Audio languages:</b> English (United States), Spanish (Latin American)<br>
<b>Subtitles:</b> English US (SDH), Spanish (Latin American) (CC)</div><div class="quoteExpand">Click to expand...</div></blockquote>
</aside>
</div>
<div class="bbCodeBlock bbCodeQuote">
<aside>
<blockquote class="quoteContainer"><div class="quote"><span style="font-family: 'Arial'"><span style="font-size: 15px"><b>More Information</b></span></span><br>
<b><i><span style="text-decoration: underline">Genres</span></i></b><br>
Comedy, Kid, Animation, Teen<br>
<br>
<b><i><span style="text-decoration: underline">Runtime</span></i></b><br>
1 hr 17 min<br>
<br>
<b><i><span style="text-decoration: underline">About This Movie</span></i></b><br>
Crossing the Atlantic with puppy pal Odie, the portly feline plans to hamper his owner's marriage proposal, but soon finds himself mistaken for a missing tabby with a noble inheritance. Garfield's living the high life in London while his counterpart Prince works the streets, but there's one big problem--the evildoer behind the kitty-napping now wants to get rid of Garfield!<br>
<br>
<b><i><span style="text-decoration: underline">Cast &amp; Crew</span></i></b><br>
Jon Arbuckle • Breckin Meyer<br>
Liz • Jennifer Love Hewitt<br>
Dargis • Billy Connolly<br>
Garfield • Bill Murray<br>
<br>
<b><i><span style="text-decoration: underline">Producers</span></i></b><br>
Producer • John Davis<br>
Executive Producer • Michele Imperato Stabile<br>
Executive Producer • Brian Manis<br>
<br>
<b><i><span style="text-decoration: underline">Directors</span></i></b><br>
Directed By • Tim Hill<br>
<br>
<b><i><span style="text-decoration: underline">Writers</span></i></b><br>
Screenplay by • Joel Cohen<br>
Screenplay by • Alec Sokolow<br>
Based on the Comic Book Series by • Jim Davis<br>
<br>
<b><i><span style="text-decoration: underline">Music</span></i></b><br>
Composer • Christophe Beck<br>
<br>
<b><i><span style="text-decoration: underline">Rating Information</span></i></b><br>
PG</div><div class="quoteExpand quoteCut">Click to expand...</div></blockquote>
</aside>
</div>
<div class="bbCodeBlock bbCodeQuote">
<aside>
<blockquote class="quoteContainer"><div class="quote"><b><span style="font-size: 15px"><span style="font-family: 'Arial'">Source</span></span></b><br>
<img src="https://i.imgur.com/kP0bkE8.png" class="bbCodeImage LbImage" alt="[​IMG]" data-url="https://i.imgur.com/kP0bkE8.png" style=""></div><div class="quoteExpand">Click to expand...</div></blockquote>
</aside>
</div>
<div class="bbCodeBlock bbCodeQuote">
<aside>
<blockquote class="quoteContainer"><div class="quote"><b><b><span style="font-size: 15px">Release Name</span></b></b><br>
Garfield.A.Tail.of.Two.Kitties.2006.1080p.HMAX.WEB-DL.DD5.1.x264-Samuel</div><div class="quoteExpand">Click to expand...</div></blockquote>
</aside>
</div>
<div class="ToggleTriggerAnchor bbCodeSpoilerContainer">
<button type="button" class="button bbCodeSpoilerButton ToggleTrigger Tooltip JsOnly" data-target="> .SpoilerTarget"><span>Spoiler: <span class="SpoilerTitle">Media Information</span></span></button>
<div class="SpoilerTarget bbCodeSpoilerText">General<br>
Complete name : Garfield.A.Tail.of.Two.Kitties.2006.1080p.HMAX.WEB-DL.DD5.1.x264-Samuel.mkv<br>
Format : Matroska<br>
Format version : Version 4<br>
File size : 4.90 GiB<br>
Duration : 1 h 17 min<br>
Overall bit rate mode : Variable<br>
Overall bit rate : 9 016 kb/s<br>
Frame rate : 23.976 FPS<br>
Encoded date : 2023-04-22 19:04:40 UTC<br>
Writing application : mkvmerge v72.0.0 ('Minuano (Six-eight)') 64-bit<br>
Writing library : libebml v1.4.4 + libmatroska v1.7.1<br>
<br>
Video<br>
ID : 1<br>
Format : AVC<br>
Format/Info : Advanced Video Codec<br>
Format profile : High@L4<br>
Format settings : CABAC / 4 Ref Frames<br>
Format settings, CABAC : Yes<br>
Format settings, Reference frames : 4 frames<br>
Codec ID : V_MPEG4/ISO/AVC<br>
Duration : 1 h 17 min<br>
Bit rate mode : Variable<br>
Bit rate : 8 250 kb/s<br>
Maximum bit rate : 12.4 Mb/s<br>
Width : 1 920 pixels<br>
Height : 1 080 pixels<br>
Display aspect ratio : 16:9<br>
Frame rate mode : Constant<br>
Frame rate : 23.976 (24000/1001) FPS<br>
Color space : YUV<br>
Chroma subsampling : 4:2:0<br>
Bit depth : 8 bits<br>
Scan type : Progressive<br>
Bits/(Pixel*Frame) : 0.166<br>
Stream size : 4.48 GiB (91%)<br>
Writing library : x264 core 157 r2965 861cec4<br>
Encoding settings : cabac=1 / ref=4 / deblock=1:0:0 / analyse=0x3:0x113 / me=hex / subme=7 / psy=1 / psy_rd=1.00:0.00 / mixed_ref=1 / me_range=16 / chroma_me=1 / trellis=1 / 8x8dct=1 / cqm=0 / deadzone=21,11 / fast_pskip=1 / chroma_qp_offset=-2 / threads=34 / lookahead_threads=5 / sliced_threads=0 / nr=0 / decimate=1 / interlaced=0 / bluray_compat=0 / constrained_intra=0 / bframes=3 / b_pyramid=2 / b_adapt=1 / b_bias=0 / direct=1 / weightb=1 / open_gop=0 / weightp=2 / keyint=96 / keyint_min=96 / scenecut=40 / intra_refresh=0 / rc_lookahead=40 / rc=2pass / mbtree=1 / bitrate=8250 / ratetol=1.0 / qcomp=0.60 / qpmin=0 / qpmax=69 / qpstep=4 / cplxblur=20.0 / qblur=0.5 / vbv_maxrate=12375 / vbv_bufsize=6187 / nal_hrd=vbr / filler=0 / ip_ratio=1.40 / aq=1:1.00<br>
Default : Yes<br>
Forced : No<br>
Color range : Limited<br>
Color primaries : BT.709<br>
Transfer characteristics : BT.709<br>
Matrix coefficients : BT.709<br>
<br>
Audio #1<br>
ID : 2<br>
Format : AC-3<br>
Format/Info : Audio Coding 3<br>
Commercial name : Dolby Digital<br>
Codec ID : A_AC3<br>
Duration : 1 h 17 min<br>
Bit rate mode : Constant<br>
Bit rate : 384 kb/s<br>
Channel(s) : 6 channels<br>
Channel layout : L R C LFE Ls Rs<br>
Sampling rate : 48.0 kHz<br>
Frame rate : 31.250 FPS (1536 SPF)<br>
Compression mode : Lossy<br>
Stream size : 214 MiB (4%)<br>
Language : English<br>
Service kind : Complete Main<br>
Default : Yes<br>
Forced : No<br>
<br>
Audio #2<br>
ID : 3<br>
Format : AC-3<br>
Format/Info : Audio Coding 3<br>
Commercial name : Dolby Digital<br>
Codec ID : A_AC3<br>
Duration : 1 h 17 min<br>
Bit rate mode : Constant<br>
Bit rate : 384 kb/s<br>
Channel(s) : 2 channels<br>
Channel layout : L R<br>
Sampling rate : 48.0 kHz<br>
Frame rate : 31.250 FPS (1536 SPF)<br>
Compression mode : Lossy<br>
Stream size : 214 MiB (4%)<br>
Title : Latin American<br>
Language : Spanish<br>
Service kind : Complete Main<br>
Default : No<br>
Forced : No<br>
<br>
Text #1<br>
ID : 4<br>
Format : UTF-8<br>
Codec ID : S_TEXT/UTF8<br>
Codec ID/Info : UTF-8 Plain Text<br>
Duration : 1 h 16 min<br>
Bit rate : 94 b/s<br>
Frame rate : 0.434 FPS<br>
Count of elements : 1987<br>
Stream size : 53.1 KiB (0%)<br>
Title : SDH<br>
Language : English<br>
Default : No<br>
Forced : No<br>
<br>
Text #2<br>
ID : 5<br>
Format : UTF-8<br>
Codec ID : S_TEXT/UTF8<br>
Codec ID/Info : UTF-8 Plain Text<br>
Duration : 1 h 16 min<br>
Bit rate : 84 b/s<br>
Frame rate : 0.324 FPS<br>
Count of elements : 1478<br>
Stream size : 46.9 KiB (0%)<br>
Title : Latin American<br>
Language : Spanish<br>
Default : No<br>
Forced : No</div>
</div><br>
<b>Screenshots</b><br>
<img src="https://i.imgur.com/tOVzFtT.png" class="bbCodeImage LbImage" alt="[​IMG]" data-url="https://i.imgur.com/tOVzFtT.png" style=""><br>
<br>
<b>Download</b><br>
<div class="bbCodeBlock bbCodeVfcHH HiddenContent">
<div class="attribution type">Hidden Content:</div>
<blockquote>You must reply before you can see the hidden data contained here.</blockquote>
</div></div>
<div class="messageTextEndMarker">&nbsp;</div>
</blockquote>
</article>]]></description>
                <author><![CDATA[Samuel]]></author>
                </item>

                
                <item>
                <title><![CDATA[【Music Videos】PACK - Cher - Believe (Promo Only)]]></title>
                <link><![CDATA[https://sharemania.us/threads/cher-believe-promo-only.219599/]]></link>
                <description><![CDATA[<article>
<blockquote class="messageText SelectQuoteContainer ugc baseHtml">
Cher - Believe got a lot of Promo Only with differnt text I will upload other when I have more space to upload.<br>
<br>
<br>
<img src="https://i.ibb.co/TtJ59cd/cherbe001.jpg" class="bbCodeImage LbImage" alt="[​IMG]" data-url="https://i.ibb.co/TtJ59cd/cherbe001.jpg" style=""> <br>
<br>
<br>
<div class="bbCodeBlock bbCodeVfcHH HiddenContent">
<div class="attribution type">Hidden Content:</div>
<blockquote>You must reply before you can see the hidden data contained here.</blockquote>
</div>
<div class="messageTextEndMarker">&nbsp;</div>
</blockquote>
</article>]]></description>
                <author><![CDATA[darkboy12]]></author>
                </item>

                
                <item>
                <title><![CDATA[【Music Videos】Ed Sheeran - Boat [4K AM WEB-DL HEVC DDP 5.1 ATMOS] - By RK✪]]></title>
                <link><![CDATA[https://sharemania.us/threads/ed-sheeran-boat-4k-am-web-dl-hevc-ddp-5-1-atmos-by-rk%E2%9C%AA.219598/]]></link>
                <description><![CDATA[<article>
<blockquote class="messageText SelectQuoteContainer ugc baseHtml">
<b>Ed Sheeran - Boat [4K AM WEB-DL HEVC DDP 5.1 ATMOS] - By RK✪</b><br>
<br>
<b><i><span style="color: #4d4dff">Hear the Difference !!</span></i></b><br>
<b><br>
<div class="bbCodeBlock bbCodeCode">
<div class="type">Code:</div>
<pre>Media Info:
<i>Format                      : Matroska
Format version              : Version 4
File size                   : 279 MiB
Duration                    : 3 min 6 s
Overall bit rate            : 12.6 Mb/s
Frame rate                  : 25.000 FPS
Movie name                  : Ed Sheeran - Boat - By RK✪
Encoded date                : 2023-04-23 06:11:46 UTC
Writing application         : mkvmerge v75.0.0 ('Goliath') 64-bit
Writing library             : libebml v1.4.4 + libmatroska v1.7.1
Video
ID                          : 1
Format                      : HEVC
Format/Info                 : High Efficiency Video Coding
Format profile              : Main 10@L5@High
Codec ID                    : V_MPEGH/ISO/HEVC
Duration                    : 3 min 3 s
Bit rate                    : 11.7 Mb/s
Width                       : 2 048 pixels
Height                      : 1 152 pixels
Display aspect ratio        : 16:9
Frame rate mode             : Constant
Frame rate                  : 25.000 FPS
Color space                 : YUV
Chroma subsampling          : 4:2:0
Bit depth                   : 10 bits
Bits/(Pixel*Frame)          : 0.199
Stream size                 : 256 MiB (92%)
Title                       : - By RK✪
Language                    : English
Default                     : Yes
Forced                      : No
Color range                 : Limited
Color primaries             : BT.709
Transfer characteristics    : BT.709
Matrix coefficients         : BT.709
Audio #1
ID                          : 2
Format                      : E-AC-3 JOC
Format/Info                 : Enhanced AC-3 with Joint Object Coding
Commercial name             : Dolby Digital Plus with Dolby Atmos
Codec ID                    : A_EAC3
Duration                    : 3 min 6 s
Bit rate mode               : Constant
Bit rate                    : 768 kb/s
Channel(s)                  : 6 channels
Channel layout              : L R C LFE Ls Rs
Sampling rate               : 48.0 kHz
Frame rate                  : 31.250 FPS (1536 SPF)
Compression mode            : Lossy
Delay relative to video     : -26 ms
Stream size                 : 17.0 MiB (6%)
Title                       : - By RK✪
Language                    : English
Service kind                : Complete Main
Default                     : Yes
Forced                      : No
Complexity index            : 16
Number of dynamic objects   : 15
Bed channel count           : 1 channel
Bed channel configuration   : LFE
Audio #2
ID                          : 3
Format                      : AAC LC
Format/Info                 : Advanced Audio Codec Low Complexity
Codec ID                    : A_AAC-2
Duration                    : 3 min 3 s
Bit rate                    : 265 kb/s
Channel(s)                  : 2 channels
Channel layout              : L R
Sampling rate               : 48.0 kHz
Frame rate                  : 46.875 FPS (1024 SPF)
Compression mode            : Lossy
Delay relative to video     : -5 ms
Stream size                 : 5.68 MiB (2%)
Title                       : - By RK✪
Language                    : English
Default                     : No
Forced                      : No
Text
ID                          : 4
Format                      : UTF-8
Codec ID                    : S_TEXT/UTF8
Codec ID/Info               : UTF-8 Plain Text
Duration                    : 3 min 2 s
Bit rate                    : 45 b/s
Frame rate                  : 0.187 FPS
Count of elements           : 34
Stream size                 : 1.00 KiB (0%)
Title                       : - By RK✪
Language                    : English
Default                     : Yes
Forced                      : No
</i></pre>
</div><i><br>
</i><br>
<span style="color: #ff0000">Password:</span><br>
<br>
<div class="bbCodeBlock bbCodeVfcHH HiddenContent">
<div class="attribution type">Hidden Content:</div>
<blockquote>You must reply before you can see the hidden data contained here.</blockquote>
</div><br>
<span style="color: #59b300">Link:</span><br>
<i><br>
<div class="bbCodeBlock bbCodeVfcHH HiddenContent">
<div class="attribution type">Hidden Content:</div>
<blockquote>You must reply before you can see the hidden data contained here.</blockquote>
</div></i><br>
</b>
<div class="messageTextEndMarker">&nbsp;</div>
</blockquote>
</article>]]></description>
                <author><![CDATA[RK94]]></author>
                </item>

                </channel></rss>